<svg xmlns="http://www.w3.org/2000/svg" version="1.1" xmlns:xlink="http://www.w3.org/1999/xlink" xmlns:svgjs="http://svgjs.dev/svgjs" viewBox="0 0 9.46442108869188 9.97673358869188"><g transform="matrix(1,0,0,1,0.8097105443459407,5.6082355443459395)"><path d="M89 0Q67 0 52 15Q37 30 37 52L37 729Q37 752 52 766.5Q67 781 89 781L541 781Q564 781 578 767.5Q592 754 592 732Q592 711 578 698Q564 685 541 685L141 685L141 442L428 442Q451 442 465 428.5Q479 415 479 394Q479 373 465 359.5Q451 346 428 346L141 346L141 52Q141 30 126 15Q111 0 89 0Z" fill="#343432" transform="matrix(0.0015,0,0,-0.0015,0,1.1715)" fill-rule="nonzero"></path><path d="M139 342Q139 402 168.5 449.5Q198 497 248 525Q298 553 358 553Q418 553 447.5 533.5Q477 514 470 487Q467 473 458.5 465.5Q450 458 439 456Q428 454 415 457Q351 470 300 459Q249 448 219.5 418Q190 388 190 342ZM140 0Q116 0 103 12.5Q90 25 90 50L90 497Q90 521 103 534Q116 547 140 547Q165 547 177.5 534.5Q190 522 190 497L190 50Q190 26 177.5 13Q165 0 140 0Z" fill="#343432" transform="matrix(0.0015,0,0,-0.0015,0.9525,1.1715)" fill-rule="nonzero"></path><path d="M318 -4Q245 -4 187 32.5Q129 69 95.5 131.5Q62 194 62 273Q62 352 98.5 415Q135 478 197.5 514.5Q260 551 338 551Q416 551 478 514.5Q540 478 576.5 415Q613 352 613 273L574 273Q574 194 540.5 131.5Q507 69 449 32.5Q391 -4 318 -4ZM338 86Q389 86 429 110.5Q469 135 492 177.5Q515 220 515 273Q515 327 492 369.5Q469 412 429 436.5Q389 461 338 461Q288 461 247.5 436.5Q207 412 183.5 369.5Q160 327 160 273Q160 220 183.5 177.5Q207 135 247.5 110.5Q288 86 338 86ZM562 -1Q540 -1 525.5 13.5Q511 28 511 50L511 203L530 309L613 273L613 50Q613 28 598.5 13.5Q584 -1 562 -1Z" fill="#343432" transform="matrix(0.0015,0,0,-0.0015,1.6365,1.1715)" fill-rule="nonzero"></path><path d="M552 -1Q530 -1 515.5 13.5Q501 28 501 50L501 296Q501 353 480 389Q459 425 423.5 442.5Q388 460 342 460Q300 460 266 443Q232 426 212 397.5Q192 369 192 332L129 332Q129 395 159.5 444.5Q190 494 243 523Q296 552 362 552Q431 552 485.5 522.5Q540 493 571.5 436Q603 379 603 296L603 50Q603 28 588.5 13.5Q574 -1 552 -1ZM141 -1Q119 -1 104.5 13.5Q90 28 90 50L90 496Q90 519 104.5 533Q119 547 141 547Q164 547 178 533Q192 519 192 496L192 50Q192 28 178 13.5Q164 -1 141 -1Z" fill="#343432" transform="matrix(0.0015,0,0,-0.0015,2.664,1.1715)" fill-rule="nonzero"></path><path d="M338 -4Q258 -4 195.5 32.5Q133 69 97.5 131.5Q62 194 62 273Q62 354 97 417Q132 480 193 515.5Q254 551 333 551Q392 551 441 528.5Q490 506 529 461Q543 445 539 428Q535 411 517 398Q503 388 486 391.5Q469 395 455 409Q406 461 333 461Q282 461 243 437.5Q204 414 182 372Q160 330 160 273Q160 219 182.5 177Q205 135 245 110.5Q285 86 338 86Q373 86 399.5 94.5Q426 103 448 121Q464 134 481 135.5Q498 137 511 126Q528 112 530 94.5Q532 77 518 63Q446 -4 338 -4Z" fill="#343432" transform="matrix(0.0015,0,0,-0.0015,3.702,1.1715)" fill-rule="nonzero"></path><path d="M151 0Q129 0 114.5 14.5Q100 29 100 51L100 496Q100 519 114.5 533Q129 547 151 547Q174 547 188 533Q202 519 202 496L202 51Q202 29 188 14.5Q174 0 151 0ZM151 636Q124 636 104.5 655.5Q85 675 85 702Q85 729 104.5 748.5Q124 768 151 768Q178 768 197.5 748.5Q217 729 217 702Q217 675 197.5 655.5Q178 636 151 636Z" fill="#343432" transform="matrix(0.0015,0,0,-0.0015,4.6185,1.1715)" fill-rule="nonzero"></path><path d="M289 -4Q219 -4 159.5 17.5Q100 39 67 72Q52 88 54.5 108.5Q57 129 74 142Q94 158 113.5 155.5Q133 153 147 138Q164 119 201.5 102.5Q239 86 285 86Q343 86 373.5 105Q404 124 405 154Q406 184 376.5 206Q347 228 269 242Q168 262 122.5 302Q77 342 77 400Q77 451 107 484.5Q137 518 184 534.5Q231 551 282 551Q348 551 399 530Q450 509 480 472Q494 456 493 438.5Q492 421 476 409Q460 398 438 402Q416 406 401 420Q376 444 347 453Q318 462 280 462Q236 462 205.5 447Q175 432 175 403Q175 385 184.5 370.5Q194 356 222 344.5Q250 333 304 322Q379 307 422.5 284Q466 261 485 230.5Q504 200 504 160Q504 114 479.5 77Q455 40 407.5 18Q360 -4 289 -4Z" fill="#343432" transform="matrix(0.0015,0,0,-0.0015,5.0865,1.1715)" fill-rule="nonzero"></path><path d="M338 -4Q258 -4 195.5 32.5Q133 69 97.5 131.5Q62 194 62 273Q62 354 97 417Q132 480 193 515.5Q254 551 333 551Q392 551 441 528.5Q490 506 529 461Q543 445 539 428Q535 411 517 398Q503 388 486 391.5Q469 395 455 409Q406 461 333 461Q282 461 243 437.5Q204 414 182 372Q160 330 160 273Q160 219 182.5 177Q205 135 245 110.5Q285 86 338 86Q373 86 399.5 94.5Q426 103 448 121Q464 134 481 135.5Q498 137 511 126Q528 112 530 94.5Q532 77 518 63Q446 -4 338 -4Z" fill="#343432" transform="matrix(0.0015,0,0,-0.0015,5.916,1.1715)" fill-rule="nonzero"></path><path d="M338 -4Q257 -4 195 31.5Q133 67 97.5 129.5Q62 192 62 273Q62 355 97.5 417.5Q133 480 195 515.5Q257 551 338 551Q418 551 480 515.5Q542 480 577.5 417.5Q613 355 613 273Q613 192 578 129.5Q543 67 481 31.5Q419 -4 338 -4ZM338 86Q390 86 430 110Q470 134 492.5 176Q515 218 515 273Q515 328 492.5 370.5Q470 413 430 437Q390 461 338 461Q286 461 246 437Q206 413 183 370.5Q160 328 160 273Q160 218 183 176Q206 134 246 110Q286 86 338 86Z" fill="#343432" transform="matrix(0.0015,0,0,-0.0015,6.8325000000000005,1.1715)" fill-rule="nonzero"></path><path d="M89 0Q67 0 52 15Q37 30 37 52L37 729Q37 752 52 766.5Q67 781 89 781L541 781Q564 781 578 767.5Q592 754 592 732Q592 711 578 698Q564 685 541 685L141 685L141 442L428 442Q451 442 465 428.5Q479 415 479 394Q479 373 465 359.5Q451 346 428 346L141 346L141 52Q141 30 126 15Q111 0 89 0Z" fill="#343432" transform="matrix(0.0015,0,0,-0.0015,1.5277499999999993,2.6715)" fill-rule="nonzero"></path><path d="M320 -5Q251 -5 196.5 24.5Q142 54 110.5 111Q79 168 79 251L79 497Q79 519 93.5 533.5Q108 548 130 548Q152 548 166.5 533.5Q181 519 181 497L181 251Q181 195 202 158.5Q223 122 259 104.5Q295 87 340 87Q383 87 416.5 104Q450 121 470 150Q490 179 490 215L553 215Q553 153 522.5 103Q492 53 439.5 24Q387 -5 320 -5ZM541 0Q519 0 504.5 14.5Q490 29 490 51L490 497Q490 520 504.5 534Q519 548 541 548Q564 548 578 534Q592 520 592 497L592 51Q592 29 578 14.5Q564 0 541 0Z" fill="#343432" transform="matrix(0.0015,0,0,-0.0015,2.4802499999999994,2.6715)" fill-rule="nonzero"></path><path d="M552 -1Q530 -1 515.5 13.5Q501 28 501 50L501 296Q501 353 480 389Q459 425 423.5 442.5Q388 460 342 460Q300 460 266 443Q232 426 212 397.5Q192 369 192 332L129 332Q129 395 159.5 444.5Q190 494 243 523Q296 552 362 552Q431 552 485.5 522.5Q540 493 571.5 436Q603 379 603 296L603 50Q603 28 588.5 13.5Q574 -1 552 -1ZM141 -1Q119 -1 104.5 13.5Q90 28 90 50L90 496Q90 519 104.5 533Q119 547 141 547Q164 547 178 533Q192 519 192 496L192 50Q192 28 178 13.5Q164 -1 141 -1Z" fill="#343432" transform="matrix(0.0015,0,0,-0.0015,3.518249999999999,2.6715)" fill-rule="nonzero"></path><path d="M347 -4Q264 -4 199.5 31.5Q135 67 98.5 129.5Q62 192 62 273Q62 355 96.5 417.5Q131 480 192 515.5Q253 551 332 551Q410 551 466 516.5Q522 482 551.5 421.5Q581 361 581 282Q581 263 568 250.5Q555 238 535 238L132 238L132 318L532 318L491 290Q490 340 471 379.5Q452 419 417 442Q382 465 332 465Q275 465 234.5 440Q194 415 173 371.5Q152 328 152 273Q152 218 177 175Q202 132 246 107Q290 82 347 82Q378 82 410.5 93.5Q443 105 463 120Q478 131 495.5 131.5Q513 132 526 121Q543 106 544 88Q545 70 528 57Q494 30 443.5 13Q393 -4 347 -4Z" fill="#343432" transform="matrix(0.0015,0,0,-0.0015,4.556249999999999,2.6715)" fill-rule="nonzero"></path><path d="M289 -4Q219 -4 159.5 17.5Q100 39 67 72Q52 88 54.5 108.5Q57 129 74 142Q94 158 113.5 155.5Q133 153 147 138Q164 119 201.5 102.5Q239 86 285 86Q343 86 373.5 105Q404 124 405 154Q406 184 376.5 206Q347 228 269 242Q168 262 122.5 302Q77 342 77 400Q77 451 107 484.5Q137 518 184 534.5Q231 551 282 551Q348 551 399 530Q450 509 480 472Q494 456 493 438.5Q492 421 476 409Q460 398 438 402Q416 406 401 420Q376 444 347 453Q318 462 280 462Q236 462 205.5 447Q175 432 175 403Q175 385 184.5 370.5Q194 356 222 344.5Q250 333 304 322Q379 307 422.5 284Q466 261 485 230.5Q504 200 504 160Q504 114 479.5 77Q455 40 407.5 18Q360 -4 289 -4Z" fill="#343432" transform="matrix(0.0015,0,0,-0.0015,5.502749999999999,2.6715)" fill-rule="nonzero"></path><path d="M718 0L718 578L461 129L417 129L159 578L159 0L89 0L89 710L161 710L438 224L717 710L788 710L788 0Z" fill="#343432" transform="matrix(0.00046875,0,0,-0.00046875,1.592812499999999,3.4092562500000003)" fill-rule="nonzero"></path><path d="M375 -5Q300 -5 239 25Q178 55 134 106.5Q90 158 66 222.5Q42 287 42 355Q42 426 67 490.5Q92 555 137.5 605.5Q183 656 244 685.5Q305 715 376 715Q451 715 512 684Q573 653 616.5 601Q660 549 684 485Q708 421 708 354Q708 283 683 218.5Q658 154 613 103.5Q568 53 507 24Q446 -5 375 -5ZM112 355Q112 297 131 243.5Q150 190 185 148.5Q220 107 268.5 82.5Q317 58 375 58Q436 58 484.5 83.5Q533 109 567.5 151.5Q602 194 620 247Q638 300 638 355Q638 413 619 466Q600 519 564.5 561Q529 603 481 627Q433 651 375 651Q315 651 266.5 626Q218 601 183.5 558.5Q149 516 130.5 463Q112 410 112 355Z" fill="#343432" transform="matrix(0.00046875,0,0,-0.00046875,2.0085937499999993,3.4092562500000003)" fill-rule="nonzero"></path><path d="M623 183Q623 130 596 88.5Q569 47 523.5 23.5Q478 0 424 0L89 0L89 710L431 710Q481 710 517.5 683.5Q554 657 573.5 615.5Q593 574 593 529Q593 476 566 431Q539 386 491 364Q552 346 587.5 297Q623 248 623 183ZM553 195Q553 231 537 261.5Q521 292 493.5 311Q466 330 431 330L159 330L159 61L424 61Q460 61 489 80Q518 99 535.5 129.5Q553 160 553 195ZM159 649L159 387L403 387Q438 387 465 405.5Q492 424 508 454Q524 484 524 518Q524 554 509 583.5Q494 613 468 631Q442 649 409 649Z" fill="#343432" transform="matrix(0.00046875,0,0,-0.00046875,2.3653124999999995,3.4092562500000003)" fill-rule="nonzero"></path><path d="M89 0L89 710L159 710L159 0Z" fill="#343432" transform="matrix(0.00046875,0,0,-0.00046875,2.6821874999999995,3.4092562500000003)" fill-rule="nonzero"></path><path d="M89 0L89 710L159 710L159 62L569 62L569 0Z" fill="#343432" transform="matrix(0.00046875,0,0,-0.00046875,2.8031249999999996,3.4092562500000003)" fill-rule="nonzero"></path><path d="M566 62L566 0L89 0L89 710L557 710L557 648L159 648L159 392L506 392L506 333L159 333L159 62Z" fill="#343432" transform="matrix(0.00046875,0,0,-0.00046875,3.0810937499999995,3.4092562500000003)" fill-rule="nonzero"></path><path d="M0 0 " fill="#343432" transform="matrix(0.00046875,0,0,-0.00046875,3.3712499999999994,3.4092562500000003)" fill-rule="nonzero"></path><path d="M89 0L89 710L330 710Q443 710 518.5 662.5Q594 615 632 534.5Q670 454 670 356Q670 248 628.5 168Q587 88 510.5 44Q434 0 330 0ZM600 356Q600 441 568.5 507Q537 573 477 610.5Q417 648 330 648L159 648L159 62L330 62Q418 62 478 101Q538 140 569 206.5Q600 273 600 356Z" fill="#343432" transform="matrix(0.00046875,0,0,-0.00046875,3.4954687499999992,3.4092562500000003)" fill-rule="nonzero"></path><path d="M566 62L566 0L89 0L89 710L557 710L557 648L159 648L159 392L506 392L506 333L159 333L159 62Z" fill="#343432" transform="matrix(0.00046875,0,0,-0.00046875,3.8353124999999992,3.4092562500000003)" fill-rule="nonzero"></path><path d="M86 710L340 87L593 710L666 710L372 0L308 0L13 710Z" fill="#343432" transform="matrix(0.00046875,0,0,-0.00046875,4.12546875,3.4092562500000003)" fill-rule="nonzero"></path><path d="M566 62L566 0L89 0L89 710L557 710L557 648L159 648L159 392L506 392L506 333L159 333L159 62Z" fill="#343432" transform="matrix(0.00046875,0,0,-0.00046875,4.4484375,3.4092562500000003)" fill-rule="nonzero"></path><path d="M89 0L89 710L159 710L159 62L569 62L569 0Z" fill="#343432" transform="matrix(0.00046875,0,0,-0.00046875,4.73859375,3.4092562500000003)" fill-rule="nonzero"></path><path d="M375 -5Q300 -5 239 25Q178 55 134 106.5Q90 158 66 222.5Q42 287 42 355Q42 426 67 490.5Q92 555 137.5 605.5Q183 656 244 685.5Q305 715 376 715Q451 715 512 684Q573 653 616.5 601Q660 549 684 485Q708 421 708 354Q708 283 683 218.5Q658 154 613 103.5Q568 53 507 24Q446 -5 375 -5ZM112 355Q112 297 131 243.5Q150 190 185 148.5Q220 107 268.5 82.5Q317 58 375 58Q436 58 484.5 83.5Q533 109 567.5 151.5Q602 194 620 247Q638 300 638 355Q638 413 619 466Q600 519 564.5 561Q529 603 481 627Q433 651 375 651Q315 651 266.5 626Q218 601 183.5 558.5Q149 516 130.5 463Q112 410 112 355Z" fill="#343432" transform="matrix(0.00046875,0,0,-0.00046875,5.00296875,3.4092562500000003)" fill-rule="nonzero"></path><path d="M89 0L89 710L383 710Q429 710 467.5 691Q506 672 534 639.5Q562 607 578 567.5Q594 528 594 487Q594 429 568.5 377.5Q543 326 497 294Q451 262 389 262L159 262L159 0ZM159 324L386 324Q428 324 459 347Q490 370 507 407Q524 444 524 487Q524 531 504 568Q484 605 451.5 626.5Q419 648 380 648L159 648Z" fill="#343432" transform="matrix(0.00046875,0,0,-0.00046875,5.3596875,3.4092562500000003)" fill-rule="nonzero"></path><path d="M566 62L566 0L89 0L89 710L557 710L557 648L159 648L159 392L506 392L506 333L159 333L159 62Z" fill="#343432" transform="matrix(0.00046875,0,0,-0.00046875,5.655937499999999,3.4092562500000003)" fill-rule="nonzero"></path><path d="M89 0L89 710L389 710Q435 710 473 691Q511 672 539.5 639.5Q568 607 583.5 567.5Q599 528 599 487Q599 436 579.5 391Q560 346 524.5 315Q489 284 441 274L615 0L536 0L369 262L159 262L159 0ZM159 324L391 324Q433 324 464 347Q495 370 512 407.5Q529 445 529 487Q529 530 509.5 566.5Q490 603 457.5 625.5Q425 648 385 648L159 648Z" fill="#343432" transform="matrix(0.00046875,0,0,-0.00046875,5.946093749999999,3.4092562500000003)" fill-rule="nonzero"></path><g transform="matrix(1,0,0,1,0,0)"><ellipse rx="2.2227499999999996" ry="2.2227499999999996" cx="3.9224999999999994" cy="-2.5757749999999993" fill="#343432"></ellipse></g><g transform="matrix(1,0,0,1,0,0)"><path d="M123 24Q95 19 62 12Q29 5 4 -1Q16 42 27.5 95.5Q39 149 50.5 208Q62 267 72.5 327.5Q83 388 93 444Q114 577 135 719L470 736L441 613L284 613L253 435Q284 436 312 436Q335 436 359 436Q383 436 396 437Q393 409 388.5 382Q384 355 380 328Q367 328 343 328.5Q319 329 293.5 330Q268 331 236 332L190 37Q156 31 123 24Z" fill="#ffffff" transform="matrix(0.0015689999999999999,0,0,-0.0015689999999999999,3.3866864999999997,-1.9748479999999995)" fill-rule="nonzero"></path><path d="M123 24Q95 19 62 12Q29 5 4 -1Q16 42 27.5 95.5Q39 149 50.5 208Q62 267 72.5 327.5Q83 388 93 444Q114 577 135 719L470 736L441 613L284 613L253 435Q284 436 312 436Q335 436 359 436Q383 436 396 437Q393 409 388.5 382Q384 355 380 328Q367 328 343 328.5Q319 329 293.5 330Q268 331 236 332L190 37Q156 31 123 24Z" fill="#ffffff" transform="matrix(0.0015689999999999999,0,0,-0.0015689999999999999,3.9232844999999994,-1.9748479999999995)" fill-rule="nonzero"></path></g></g><defs></defs></svg>